<svg width="156" height="32" viewBox="0 0 156 32" fill="none" xmlns="http://www.w3.org/2000/svg">
<path d="M70.3108 16.1095C70.3108 22.001 66.7171 24.7862 62.2192 24.7862H59.4703V21.2512H62.005C64.7181 21.2512 66.5265 19.7874 66.5265 16.1095C66.5265 12.4673 64.8162 10.6459 61.9245 10.6459C59.14 10.6459 57.1498 12.3601 57.1498 16.038V30.8211H53.4014V7.57499H57.1498V9.5749H57.6853C58.9348 7.89665 60.7821 7.14649 62.7099 7.14649C66.851 7.14649 70.3108 10.146 70.3108 16.1095ZM45.6757 14.5738L43.1767 14.3238C41.2132 14.1453 40.1779 13.6097 40.1779 12.467C40.1779 11.1101 41.4989 10.3246 43.3909 10.3246C45.3544 10.3246 46.6038 11.2529 46.7109 12.5741H50.3165C50.1738 9.21761 47.5678 7.14649 43.4267 7.14649C39.2498 7.14649 36.4295 9.36042 36.4295 12.6099C36.4295 15.3237 38.1431 17.0733 42.0344 17.4662L44.5689 17.7161C46.1041 17.8588 47.1394 18.1802 47.1394 19.6443C47.1394 20.9656 46.1754 21.9296 43.6409 21.9296C41.3068 21.9296 40.1567 20.8702 39.7532 19.4502H35.8524C36.2411 22.6962 38.9672 25.2147 43.6409 25.2147C48.0319 25.2147 50.8877 22.8937 50.8877 19.4659C50.8877 16.4306 48.8886 14.8952 45.6757 14.5738ZM84.8284 19.4502C84.2403 20.801 82.8352 21.8226 80.8414 21.8226C78.0926 21.8226 76.0578 20.0371 76.0578 16.1807C76.0578 12.5027 77.9497 10.4674 80.877 10.4674C83.4832 10.4674 84.9825 12.0385 85.1254 14.3952H78.3781V17.1093H88.8024V15.3237C88.8024 10.3602 85.518 7.14649 80.8414 7.14649C76.4862 7.14649 72.3092 10.1103 72.3092 16.1807C72.3092 22.2509 76.4862 25.2147 80.8414 25.2147C84.825 25.2147 87.6656 22.7603 88.5481 19.4502H84.8284ZM25.7377 7.14649C21.6324 7.14649 18.5622 9.28926 18.2052 12.5741H22.2391C22.5248 11.3603 23.6314 10.4676 25.7377 10.4676C28.451 10.4676 29.3434 11.8962 29.3434 13.6456V19.5372C27.8084 21.2871 26.0234 22.1081 24.2383 22.1081C22.382 22.1081 21.0969 21.2155 21.0969 19.6089C21.0969 18.0731 22.0964 17.1093 24.0242 17.1093H27.0229V14.3952H23.9171C19.6331 14.3952 17.2414 16.538 17.2414 19.8229C17.2414 22.8937 19.5617 25.2147 23.3816 25.2147C25.5235 25.2147 27.4156 24.358 28.8079 23.3222H29.3434V24.7862H33.0918V13.2883C33.0918 9.03905 30.2002 7.14649 25.7377 7.14649ZM0.304688 24.7862H4.05314V1.21899H0.304688V24.7862ZM16.048 7.57499H11.4786L6.01659 14.7526V17.0022L11.6213 24.7862H16.2622L9.69363 15.8593L16.048 7.57499ZM151.554 7.57499L148.484 14.3952C147.734 16.038 147.021 17.6446 146.806 18.7161H146.27C146.056 17.6446 145.307 16.0736 144.557 14.4312L141.487 7.57499H137.346L144.557 23.0366L140.987 30.8211H144.986L155.695 7.57499H151.554ZM136.517 7.57499H131.947L126.485 14.7526V17.0022L132.09 24.7862H136.731L130.162 15.8593L136.517 7.57499ZM113.048 14.5738L110.549 14.3238C108.585 14.1453 107.55 13.6097 107.55 12.467C107.55 11.1101 108.871 10.3246 110.763 10.3246C112.726 10.3246 113.976 11.2529 114.083 12.5741H117.688C117.546 9.21761 114.94 7.14649 110.799 7.14649C106.622 7.14649 103.802 9.36042 103.802 12.6099C103.802 15.3237 105.515 17.0733 109.406 17.4662L111.941 17.7161C113.476 17.8588 114.511 18.1802 114.511 19.6443C114.511 20.9656 113.547 21.9296 111.013 21.9296C108.679 21.9296 107.529 20.8702 107.125 19.4502H103.224C103.613 22.6962 106.339 25.2147 111.013 25.2147C115.404 25.2147 118.26 22.8937 118.26 19.4659C118.26 16.4306 116.261 14.8952 113.048 14.5738ZM120.773 24.7862H124.522V1.21899H120.773V24.7862ZM96.0552 9.5749H95.5197V7.57499H91.7713V24.7862H95.5197V15.7878C95.5197 12.717 96.9383 10.9315 99.7323 10.9315H102.105V7.14649H100.732C98.1394 7.14649 97.0376 8.12447 96.0552 9.5749Z" fill="white"/>
</svg>
